{"title":"(1999) Star Wars Episode 1 The Phantom Menace-1080p BluRay Hardc","uid":8588405,"size":8732676400,"categoryP":"video","categoryS":"hd___movies","magnet":"?xt=urn:btih:bb8b87efd8e22db955e5c4b63128482a25f968a1&amp;dn=%281999%29+Star+Wars+Episode+1+The+Phantom+Menace-1080p+BluRay+Hardc&amp;tr=udp%3A%2F%2Ftracker.openbittorrent.com%3A80&amp;tr=udp%3A%2F%2Fopen.demonii.com%3A1337&amp;tr=udp%3A%2F%2Ftracker.coppersurfer.tk%3A6969&amp;tr=udp%3A%2F%2Fexodus.desync.com%3A6969","seeders":1,"leechers":2,"uploader":"100.XY","files":-1,"time":1371582296,"description":"General\nComplete name : /Volumes/My Book/Cinema/Boxset/Star Wars Boxset /Star Wars Episode I - The Phantom Menace/(1999) Star Wars Episode 1 The Phantom Menace-1080p BluRay Hardcoded subs-PT [TUGA].mkv\nFormat : Matroska\nFile size : 8.13 GiB\nDuration : 2h 16mn\nOverall bit rate : 8 550 Kbps\nEncoded date : UTC 2013-06-15 20:10:03\nWriting library : WonderShare Matroska Muxer\n\nVideo\nID : 1\nFormat : AVC\nFormat/Info : Advanced Video Codec\nFormat profile : &lt;a class=&quot;__cf_email__&quot; href=&quot;/cdn-cgi/l/email-protection&quot; data-cfemail=&quot;9edcffedfbf2f7f0fbded2abb0ae&quot;&gt;[email&amp;#160;protected]&lt;/a&gt;&lt;script cf-hash='f9e31' type=&quot;text/javascript&quot;&gt;\n/* &lt;![CDATA[ */!function(){try{var t=&quot;currentScript&quot;in document?document.currentScript:function(){for(var t=document.getElementsByTagName(&quot;script&quot;),e=t.length;e--;)if(t[e].getAttribute(&quot;cf-hash&quot;))return t[e]}();if(t&amp;&amp;t.previousSibling){var e,r,n,i,c=t.previousSibling,a=c.getAttribute(&quot;data-cfemail&quot;);if(a){for(e=&quot;&quot;,r=parseInt(a.substr(0,2),16),n=2;a.length-n;n+=2)i=parseInt(a.substr(n,2),16)^r,e+=String.fromCharCode(i);e=document.createTextNode(e),c.parentNode.replaceChild(e,c)}}}catch(u){}}();/* ]]&gt; */&lt;/script&gt;\nFormat settings, CABAC : No\nFormat settings, ReFrames : 1 frame\nCodec ID : V_MPEG4/ISO/AVC\nDuration : 2h 16mn\nBit rate : 8 220 Kbps\nWidth : 1 920 pixels\nHeight : 1 080 pixels\nDisplay aspect ratio : 16:9\nFrame rate : 23.976 fps\nOriginal frame rate : 23.000 fps\nColor space : YUV\nChroma subsampling : 4:2:0\nBit depth : 8 bits\nScan type : Progressive\nBits/(Pixel*Frame) : 0.165\nStream size : 7.82 GiB (96%)\n\nAudio\nID : 2\nFormat : AC-3\nFormat/Info : Audio Coding 3\nMode extension : CM (complete main)\nCodec ID : A_AC3\nDuration : 2h 16mn\nBit rate mode : Constant\nBit rate : 160 Kbps\nChannel(s) : 2 channels\nChannel positions : Front: L R\nSampling rate : 44.1 KHz\nBit depth : 16 bits\nCompression mode : Lossy\nDelay relative to video : 4ms\nStream size : 156 MiB (2%)","torrent":{"xt":"urn:btih:bb8b87efd8e22db955e5c4b63128482a25f968a1","amp;dn":"%281999%29+Star+Wars+Episode+1+The+Phantom+Menace-1080p+BluRay+Hardc","amp;tr":["udp%3A%2F%2Ftracker.openbittorrent.com%3A80","udp%3A%2F%2Fopen.demonii.com%3A1337","udp%3A%2F%2Ftracker.coppersurfer.tk%3A6969","udp%3A%2F%2Fexodus.desync.com%3A6969"],"infoHash":"bb8b87efd8e22db955e5c4b63128482a25f968a1","infoHashBuffer":{"type":"Buffer","data":[187,139,135,239,216,226,45,185,85,229,196,182,49,40,72,42,37,249,104,161]},"announce":[],"urlList":[]}}